<?xml version="1.0" encoding="utf-8"?>
<!-- Generator: Adobe Illustrator 28.0.0, SVG Export Plug-In . SVG Version: 6.00 Build 0)  -->
<svg version="1.1" id="레이어_1" xmlns="http://www.w3.org/2000/svg" xmlns:xlink="http://www.w3.org/1999/xlink" x="0px"
	 y="0px" width="173" height="57.28" viewBox="0 0 173 57.28" style="enable-background:new 0 0 173 57.28;" xml:space="preserve">
<style type="text/css">
	.st0{fill:#0075C2;}
	.st1{fill:#9FA0A0;}
</style>
<g>
	<path class="st0" d="M30.24,2.29c-14.02,0-25.38,11.37-25.38,25.38c0,1.98,0.22,3.9,0.65,5.75c1.93-2.92,5.25-4.85,9.01-4.85
		c1.94,0,3.75,0.51,5.33,1.4c8.53-5.2,15.33,2.6,19.43-8c1.07-2.77,0.83-7.45-1.11-9.7l-0.19-0.21c-3.73-4.11-10.14-4.46-14.3-0.79
		c-2.2,1.93-3.37,4.61-3.46,7.32c-0.02,0.5-0.52,0.82-0.98,0.63l-1.32-0.56c-0.27-0.11-0.45-0.39-0.43-0.68
		c0.19-3.77,1.85-7.47,4.93-10.14c5.99-5.21,15.08-4.58,20.3,1.42c4.93,5.67,5.56,13.33,1.23,20.9c-2.72,4.77-9.88,9.68-9.88,9.68
		c2.6-0.37,5.55-3.26,5.55-3.26c0.61,5.96-7.26,9.88-12.1,16.33c0.89,0.1,1.8,0.15,2.72,0.15c14.02,0,25.38-11.37,25.38-25.39
		C55.62,13.66,44.26,2.29,30.24,2.29"/>
</g>
<g>
	<path class="st0" d="M24.55,31.84c0-0.47-0.38-0.86-0.86-0.86c-0.47,0-0.86,0.38-0.86,0.86c0,0.47,0.38,0.86,0.86,0.86
		C24.17,32.7,24.55,32.31,24.55,31.84"/>
</g>
<path class="st0" d="M166.47,25.63h2.66V14.3h-2.66v4.38h-5.08V14.3h-2.66v11.33h2.66v-4.51h5.08V25.63z M157.52,17.1v-2.8h-9.18
	v2.8h3.31v8.53h2.66V17.1H157.52z M144.48,25.63h2.66V14.3h-2.66V25.63z M136.59,25.63h2.9l4.16-11.33h-2.91L138,22.03l-2.53-7.73
	h-2.9l1.27,3.65l-1.77,4.55l-2.88-8.2h-2.87l4.07,11.33h2.9l1.71-4.37L136.59,25.63z M122.79,25.63h2.66V14.3h-2.29l-3.83,4.73
	l-3.83-4.73h-2.3v11.33h2.66V18.7l3.23,4.1h0.46l3.24-4.1V25.63z M106.69,17.07l1.55,4.43h-3.18L106.69,17.07z M100.96,25.63h2.69
	l0.74-2.08h4.51l0.73,2.08h2.69l-4.08-11.33h-3.12L100.96,25.63z M100.68,25.63V23.2h-6.11v-2.17h4.95v-2.35h-4.95v-1.95h6.11V14.3
	h-8.64v11.33H100.68z M85.51,16.73c0.87,0,1.42,0.53,1.42,1.4c0,0.83-0.55,1.4-1.42,1.4H83.1v-2.8H85.51z M80.44,25.63h2.66v-4.08
	h0.57c1.41,1.02,3.21,4.25,5.68,4.25c0.73,0,1.38-0.2,1.82-0.43l-0.25-2.2c-0.33,0.15-0.79,0.22-1.14,0.22c-1,0-1.95-1-2.91-1.93
	c1.63-0.35,2.82-1.63,2.82-3.41c0-2.65-2.04-3.73-4.13-3.73h-5.11V25.63z M73.2,16.73c1.74,0,2.93,1.15,2.93,3.25
	c0,2.06-1.19,3.21-2.93,3.21h-2.06v-6.46H73.2z M68.48,25.63h4.83c3.18,0,5.56-2,5.56-5.65c0-3.68-2.37-5.66-5.56-5.68h-4.83V25.63z
	"/>
<path class="st1" d="M141.92,40.89h2.66v-4.38l4.1-6.75v-0.2h-2.96l-2.47,4.38l-2.45-4.38h-2.98v0.2l4.1,6.76V40.89z M134.79,40.89
	h2.29V29.56h-2.66v6.88l-5.41-6.88h-2.31v11.33h2.66v-6.88L134.79,40.89z M120.19,32.33l1.55,4.43h-3.18L120.19,32.33z
	 M114.46,40.89h2.69l0.74-2.08h4.51l0.73,2.08h2.69l-4.08-11.33h-3.12L114.46,40.89z M110.56,32c0.93,0,1.65,0.65,1.65,1.75
	c0,1.03-0.71,1.72-1.65,1.72h-2.26V32H110.56z M105.63,40.89h2.66v-3h2.69c2.14,0,3.97-1.55,3.97-4.13c0-2.88-1.84-4.2-3.97-4.2
	h-5.35V40.89z M100.81,40.89h2.66V29.56h-2.29l-3.83,4.73l-3.83-4.73h-2.3v11.33h2.66v-6.93l3.23,4.1h0.46l3.24-4.1V40.89z
	 M81.21,35.25c0-1.83,1.24-3.2,2.93-3.2c1.74,0,2.93,1.37,2.93,3.2c0,1.8-1.19,3.18-2.93,3.18C82.44,38.43,81.21,37.04,81.21,35.25
	 M78.6,35.25c0,3.32,2.38,5.81,5.53,5.81c3.18,0,5.56-2.5,5.56-5.81c0-3.35-2.37-5.85-5.56-5.85C80.97,29.4,78.6,31.9,78.6,35.25
	 M76.55,37.15c-0.76,0.73-1.87,1.33-3.12,1.33c-1.74,0-2.88-1.18-2.88-3.23c0-2.08,1.14-3.27,2.79-3.27c1.38,0,1.98,0.87,1.99,2.23
	l2.44-0.53c-0.06-2.65-1.62-4.28-4.4-4.28c-3.18,0-5.57,2.17-5.57,5.85c0,3.65,2.39,5.81,5.57,5.81c1.79,0,3.45-0.87,4.42-1.83
	L76.55,37.15z"/>
</svg>
