<?xml version="1.0" encoding="utf-8"?>
<!-- Generator: Adobe Illustrator 28.0.0, SVG Export Plug-In . SVG Version: 6.00 Build 0)  -->
<svg version="1.1" id="레이어_1" xmlns="http://www.w3.org/2000/svg" xmlns:xlink="http://www.w3.org/1999/xlink" x="0px"
	 y="0px" viewBox="0 0 52 41" style="enable-background:new 0 0 52 41;" xml:space="preserve">
<style type="text/css">
	.st0{opacity:0.4;}
	.st1{fill:#0075C1;}
</style>
<g class="st0">
	<path class="st1" d="M26.22,0.5C15.16,0.5,6.19,9.47,6.19,20.53c0,1.56,0.18,3.08,0.51,4.54c1.53-2.31,4.14-3.83,7.11-3.83
		c1.53,0,2.96,0.4,4.2,1.11c6.73-4.1,12.1,2.05,15.33-6.31c0.85-2.19,0.65-5.88-0.88-7.66l-0.15-0.17c-2.94-3.24-8-3.52-11.29-0.62
		c-1.73,1.53-2.66,3.64-2.73,5.78c-0.01,0.39-0.41,0.65-0.77,0.5l-1.04-0.44c-0.22-0.09-0.35-0.31-0.34-0.54
		c0.15-2.98,1.46-5.89,3.89-8C24.78,0.76,31.95,1.27,36.06,6c3.89,4.47,4.39,10.52,0.97,16.49c-2.15,3.77-7.79,7.64-7.79,7.64
		c2.05-0.29,4.38-2.57,4.38-2.57c0.48,4.7-5.73,7.8-9.55,12.89c0.7,0.08,1.42,0.11,2.14,0.11c11.06,0,20.03-8.97,20.03-20.03
		C46.25,9.47,37.28,0.5,26.22,0.5"/>
</g>
<g class="st0">
	<path class="st1" d="M21.73,23.81c0-0.37-0.3-0.68-0.68-0.68c-0.37,0-0.68,0.3-0.68,0.68c0,0.37,0.3,0.68,0.68,0.68
		C21.43,24.49,21.73,24.19,21.73,23.81"/>
</g>
</svg>
